<?xml version="1.0" encoding="UTF-8" standalone="no"?>
<svg width="800px" height="800px" viewBox="0 0 800 800" version="1.1" xmlns="http://www.w3.org/2000/svg" xmlns:xlink="http://www.w3.org/1999/xlink" xmlns:sketch="http://www.bohemiancoding.com/sketch/ns">
    <!-- Generator: Sketch 3.3.1 (12002) - http://www.bohemiancoding.com/sketch -->
    <title>appy_black</title>
    <desc>Created with Sketch.</desc>
    <defs></defs>
    <g id="Page-1" stroke="none" stroke-width="1" fill="none" fill-rule="evenodd" sketch:type="MSPage">
        <g id="appy_black" sketch:type="MSArtboardGroup">
            <circle id="Oval-1" fill="#000000" sketch:type="MSShapeGroup" cx="400" cy="400" r="399"></circle>
            <g id="Group" sketch:type="MSLayerGroup" transform="translate(84.000000, 31.000000)">
                <path d="M665.936056,416.14007 L463.058946,471.003304 L168.039217,388.550411 L229.323901,348.926776 L176.406903,251.532478 L665.936056,416.14007 Z" id="Shape" fill="#FFAC3F" sketch:type="MSShapeGroup"></path>
                <g id="left-hand" transform="translate(16.564217, 255.487263)" fill="#FFFFFF" sketch:type="MSShapeGroup">
                    <g id="left-sleeve" transform="translate(19.406851, 191.237138)">
                        <path d="M59.0247303,0.838262689 L13.2175721,1.05895162 C6.16984316,1.09215261 0.502089084,4.7423084 0.554454203,9.21272393 L0.554454203,135.366995 L59.024731,118.488624 L59.0247303,0.838262689 Z" id="Shape"></path>
                        <path d="M120.340276,8.30640611 C120.287911,3.94433554 114.530828,0.436376699 107.483099,0.468787188 L57.46825,0.70519311 L57.46825,119.000084 L120.340276,102.633172 L120.340276,8.30640611 Z" id="Shape"></path>
                    </g>
                    <path d="M91.6152699,135.120307 C91.3257216,134.72019 91.0454142,134.326229 90.7835886,133.932267 C87.5893163,129.18011 84.7893226,124.163261 81.8661168,119.23259 C71.5347868,101.839819 64.0280929,81.7262527 40.2112046,76.3985431 C40.0910729,76.3708427 39.9678608,76.3431423 39.8446488,76.3185197 C39.7214367,75.8999359 40.0171456,75.5552199 40.1003138,75.4751965 C40.5592786,75.0319901 41.7451946,73.2222309 45.0750001,70.8892419 C48.9962234,68.140747 56.2626538,63.9395201 60.7876162,62.9546171 C65.2879361,61.9758697 69.9792347,61.557286 74.605847,61.7912004 C76.8205835,61.902002 79.4172774,62.9176832 82.6793163,62.1513056 C83.7142975,61.9050798 85.8089022,60.9971224 86.6282623,58.7441568 C90.2784192,48.701224 86.409561,47.854823 82.5222209,46.3867019 C68.9904581,41.2805954 55.825251,35.1741968 42.7031682,29.0647204 C38.0457529,26.894856 35.6338771,27.6797006 32.8061607,31.9086278 C23.4358847,45.9281065 13.8499875,59.8213944 3.88213308,73.4253671 C-0.159222005,78.9377461 0.0194354604,83.0897278 3.95298,88.6113403 C17.8574593,108.103186 31.4015434,127.856647 44.7608094,147.723987 C46.8461732,150.832587 48.6265873,155.227717 48.2138269,158.754901 C46.2116312,175.815268 35.322766,267.662032 32.80616,284.66392 L94.7171294,284.66392 C96.0508998,267.514297 92.4746739,175.11968 93.3956839,157.945434 C93.4141657,157.573017 93.4911733,157.222146 93.611305,156.883585 C93.7622398,152.466911 95.1237329,148.099482 94.7171331,143.670496 C94.439906,140.65423 93.0876538,137.838023 91.6152699,135.120307 Z" id="Shape"></path>
                    <path d="M93.518896,11.3303108 C91.4982184,11.4441902 89.5422272,11.8289179 87.9250691,13.2354825 C87.8788646,13.2754942 87.8295798,13.2816498 87.780295,13.2847277 C82.4267316,22.4443256 77.8432435,29.6987517 72.538965,38.7752484 C77.4643665,41.0436032 82.4729361,42.9149189 87.7587328,45.3802542 C93.6390277,48.1287491 92.813507,54.2566925 90.6788583,60.7201184 C89.7085635,63.6502048 88.4980051,64.2319132 85.223645,65.7400459 C82.799448,66.8542174 79.1492912,66.4140889 75.9580992,66.1863301 C70.6168571,65.8046802 65.8023464,66.0262833 61.0556024,67.0542758 C60.0822272,67.2697234 57.3684819,68.3838949 56.1302008,68.7132218 C55.5788269,69.661191 55.027453,70.6030045 54.4729988,71.5509736 C75.8256463,86.940083 75.3235572,86.5368883 89.6377165,66.3155986 C91.8678546,63.1700646 93.9809411,59.8952622 96.1864367,56.71895 C113.836562,31.28383 114.200038,30.7359777 93.518896,11.3303108 L93.518896,11.3303108 Z" id="Shape"></path>
                    <path d="M50.3299938,27.9105372 C57.1158972,31.2191957 62.2784819,33.5029396 68.1741783,36.4730377 C73.2012297,26.8302217 77.0793288,19.3541924 82.1556651,9.61288615 C82.2388332,7.84929422 82.1556651,5.97797852 81.1638081,4.50370184 C65.1000377,0.324019729 58.3018131,-1.71349835 53.15463,2.63854178 C50.2037015,5.13465532 47.7887454,9.74215467 44.4774217,17.2612735 C43.4455208,19.6065738 41.7359537,24.0755712 41.7359537,24.0755712 C41.7359537,24.0755712 45.6109725,25.6144821 50.3299938,27.9105372 L50.3299938,27.9105372 Z" id="Shape"></path>
                    <path d="M86.9578546,173.429956 C87.0040591,171.164679 96.5714744,167.868331 96.6238395,165.993938 C96.7470515,161.885046 96.9010666,158.791835 97.088965,156.988231 C97.3877542,154.150479 99.4682474,145.640629 97.0889649,139.512738 C94.7096825,133.384846 80.6216751,108.749529 67.4133439,86.6907794 C74.8245484,86.6815459 100.033733,97.3154205 102.772121,99.3744834 C104.355395,100.5656 106.693344,103.464909 108.673978,105.471649 C121.253927,118.22922 119.923237,116.656453 136.880295,102.353815 C139.193601,100.405554 141.750251,98.7681525 144.260696,97.0845839 C144.70734,96.7829573 145.52054,97.0322609 147.174661,97.0199496 C144.932202,117.949138 138.528256,131.765481 130.839824,142.571713 C128.212328,146.271255 121.99628,159.090383 120.961299,172.183438 C119.615207,189.228415 120.915092,265.390186 120.961297,278.52633 C110.814785,278.603276 107.238558,288.681782 97.0889656,288.75565 C97.0889656,288.75565 86.184699,213.39855 86.9578546,173.429956 Z" id="Shape"></path>
                    <path d="M118.099699,34.601722 C119.504316,35.0203057 119.886274,35.0356949 120.138858,35.223442 C142.169172,51.6774777 142.163011,51.6774777 124.097045,72.4281528 C121.888469,74.9642781 119.766142,77.5773488 117.532924,80.0919293 C103.187961,96.2351051 103.181801,96.2320272 81.8507153,83.9915296 C93.928576,67.5344161 105.898626,51.2250379 118.099699,34.601722 L118.099699,34.601722 Z" id="Shape"></path>
                    <path d="M144.852114,58.8364914 C144.439354,58.4332968 143.653877,58.4055964 142.369392,57.9747013 C136.717039,64.2657692 130.833664,70.7261173 125.055019,77.2726445 C119.34106,83.7483817 113.728752,90.3164536 108.08872,96.8198912 C111.917535,101.011885 115.225778,104.628325 118.731161,108.463291 C119.827748,108.928042 120.964379,109.140412 122.156456,109.045 C122.698589,108.995755 123.108269,108.798774 123.511788,108.586404 C130.679649,102.775477 137.212967,97.549335 143.610753,92.1970028 C162.662415,76.2754302 162.643934,76.2415741 144.852114,58.8364914 L144.852114,58.8364914 Z" id="Shape"></path>
                </g>
                <g id="middle-hand" transform="translate(0.823321, 0.734104)" sketch:type="MSShapeGroup">
                    <path d="M357.406266,337.204682 L400.114641,339.393013 C398.189453,320.085836 397.249961,282.471775 396.027081,265.789981 C395.568116,259.612792 397.302326,252.250642 400.570525,246.9968 C416.387872,221.53398 417.019333,193.664303 416.628135,164.99747 C414.388756,165.286785 413.249045,165.086727 412.694591,165.563789 C409.583487,168.253805 406.330689,170.826864 403.58614,173.895453 C384.078593,195.714132 381.269359,196.615934 363.018574,179.690991 C354.711002,171.984125 329.387847,160.974757 307.104948,164.067968 C328.574647,191.734508 354.443014,222.765893 358.730795,230.265893 C363.018576,237.765893 358.67535,250.373171 358.730795,254.263538 C359.072709,276.460789 356.611548,313.59471 357.406266,337.204682 Z" id="Shape" fill="#FFFFFF"></path>
                    <g id="pen" transform="translate(0.829679, 0.685966)">
                        <path d="M144.057371,53.1405774 L137.862886,68.0680135 L246.055382,112.914956 C249.446794,108.378247 251.750859,103.564533 253.759216,98.6153956 L144.057371,53.1405774 L144.057371,53.1405774 Z" id="Shape" fill="#BDBDBF"></path>
                        <path d="M404.512233,161.107491 C400.08276,165.23485 395.536236,169.229863 391.534925,173.221798 L444.98431,195.379038 C448.637547,196.893326 452.829837,195.160512 454.342265,191.513293 L457.795282,183.193941 L404.512233,161.107491 L404.512233,161.107491 Z" id="Shape" fill="#BDBDBF"></path>
                        <path d="M457.893852,164.286881 L417.344768,147.478896 C413.654567,152.357243 409.024874,156.918575 404.27505,161.332172 L457.681311,183.470945 L461.76271,173.640382 C463.281298,169.987007 461.547089,165.801169 457.893852,164.286881 L457.893852,164.286881 Z" id="Shape" fill="#9D9EA2"></path>
                        <path d="M150.79399,36.9881682 C149.752848,39.4873595 148.693224,41.9803953 147.652083,44.4795866 L143.94032,53.4206592 L253.645244,98.8954774 C255.85382,93.4846665 259.393086,88.6155523 261.872729,83.0323835 L150.79399,36.9881682 L150.79399,36.9881682 Z" id="Shape" fill="#9D9EA2"></path>
                        <path d="M32.6829232,20.6387784 L139.218218,64.7962888 L148.690144,41.9803953 C148.690144,41.9803953 135.728237,45.6153029 125.868193,42.9652983 C116.882955,40.5492081 111.366135,34.7505917 106.613231,29.1397224 C104.6634,26.8436673 93.4018191,13.1535156 78.4808404,7.02557221 C65.1616183,1.55936055 40.5715744,-1.45074924 24.5416873,0.962263108 C9.44821179,3.2398513 0.573864233,7.32412093 0.573864233,7.32412093 L32.6829232,20.6387784 L32.6829232,20.6387784 Z" id="Shape" fill="#9D9EA2"></path>
                        <path d="M69.8775594,31.4973339 C65.8115619,21.5559693 61.690119,11.6392272 57.5902381,1.71325165 C51.6822206,0.836072412 45.4014866,0.260519721 39.4873084,0.106628627 L51.1524088,28.2902436 L72.1015368,36.9727791 C71.3622645,35.1476307 70.6229922,33.3194045 69.8775594,31.4973339 L69.8775594,31.4973339 Z" id="Shape" fill="#BDBDBF"></path>
                        <path d="M454.19441,182.052069 L469.780734,188.512417 L472.737823,181.381104 L457.57042,173.923541 L454.19441,182.052069 Z" id="Shape" fill="#888787"></path>
                        <path d="M454.308381,181.781221 L451.070985,189.583499 L467.08547,195.025088 L469.897785,188.238491 L454.308381,181.781221 Z" id="Shape" fill="#888787"></path>
                        <path d="M489.454617,199.167836 C487.892905,198.521494 487.107428,196.797913 487.587955,195.222069 L468.711869,187.398245 L466.531016,192.667477 L492.670452,211.531447 L492.947679,211.497591 C501.517076,206.985504 521.224843,210.247995 521.961035,210.546544 C522.407679,210.737369 522.906687,210.629645 523.23936,210.324941 L493.397403,197.979797 C492.544159,199.232471 490.902359,199.768012 489.454617,199.167836 L489.454617,199.167836 Z" id="Shape" fill="#E9D554"></path>
                        <path d="M470.778751,182.415252 L468.600979,187.672172 L487.452421,195.486761 C487.455502,195.480606 487.458582,195.47445 487.461662,195.471372 C488.14857,193.809348 490.058356,193.024504 491.712478,193.70778 C493.1633,194.311033 493.951857,195.843789 493.665389,197.327299 L523.356411,209.613964 C523.251681,209.284637 523.011418,208.995322 522.663344,208.853742 C521.964115,208.564427 505.777133,196.674801 502.912453,187.450568 L502.736876,187.235121 L470.778751,182.415252 L470.778751,182.415252 Z" id="Shape" fill="#D0AC3F"></path>
                    </g>
                    <path d="M367.106134,85.3619065 C369.065205,85.6973891 369.591937,85.6542996 369.964653,85.8666693 C402.440268,104.512114 402.434108,104.512114 381.404892,135.52117 C378.83284,139.313046 376.393242,143.191102 373.781146,146.955278 C357.030469,171.128491 357.021228,171.125413 326.184333,158.060059 C339.817746,133.834523 353.331027,109.83059 367.106134,85.3619065 L367.106134,85.3619065 Z" id="Shape" fill="#FFFFFF"></path>
                    <path d="M407.236297,113.754813 C406.607916,113.274673 405.545212,113.367008 403.737075,112.994591 C397.126749,122.42196 390.229955,132.120176 383.493336,141.913806 C376.821404,151.602789 370.309647,161.399496 363.751686,171.11618 C369.616579,176.154574 374.683675,180.503536 380.046479,185.114114 C381.605111,185.560398 383.172985,185.665044 384.771661,185.338795 C385.492451,185.187981 386.016103,184.855576 386.524352,184.504705 C395.266247,175.471298 403.244227,167.333537 411.018907,159.054196 C434.179691,134.419309 434.139647,134.382376 407.236297,113.754813 L407.236297,113.754813 Z" id="Shape" fill="#FFFFFF"></path>
                    <path d="M330.065513,57.9200466 C327.348687,58.4001869 324.767395,59.2373544 322.814484,61.404141 C322.755958,61.4656975 322.688192,61.4780087 322.623505,61.4964757 C316.924948,74.6603198 312.098116,84.5555172 306.451924,97.5993263 C313.26247,99.5629766 319.59865,102.302238 326.889722,104.73064 C337.630732,108.307069 334.011379,118.944021 332.603681,126.072256 C331.725795,130.525865 327.909302,135.161064 315.187658,135.296489 C308.987012,135.361123 298.920588,136.616874 293.41609,139.414614 C290.073963,141.113572 287.360218,143.828211 286.808844,145.099351 C318.197113,162.421333 317.775111,162.578302 333.8204,132.898865 C336.321604,128.279055 338.641071,123.505353 341.102232,118.851686 C360.797677,81.5700299 361.198116,80.7697963 330.065513,57.9200466 L330.065513,57.9200466 Z" id="Shape" fill="#FFFFFF"></path>
                    <g id="middle-sleeve" transform="translate(259.574974, 298.211756)" fill="#FFFFFF">
                        <path d="M0.616695995,67.2637964 L173.603101,67.2637964 L173.603101,180.297783 L0.616695995,226.841189 L0.616695995,67.2637964 Z" id="Rectangle-4"></path>
                        <path d="M169.633111,18.2330168 C169.633111,8.64252383 161.852271,0.864867947 152.250972,0.864867947 L61.0370951,0.864867947 L61.0370951,60.9470288 L169.633111,60.9470288 L169.633111,18.2330168 Z" id="Shape"></path>
                        <path d="M22.4840462,0.864867947 C12.8827475,0.864867947 5.10190689,8.64252383 5.10190689,18.2330168 L5.10190689,60.9501066 L84.1393536,60.9501066 L84.1393536,0.867945769 L22.4840462,0.867945769 L22.4840462,0.864867947 Z M19.2096861,53.012404 C15.8829608,53.012404 13.1846171,50.3193099 13.1846171,46.9921844 C13.1846171,43.6681368 15.8829608,40.9781205 19.2096861,40.9781205 C22.5364113,40.9781205 25.2316748,43.6681368 25.2316748,46.9921844 C25.2316748,50.3223877 22.5364113,53.012404 19.2096861,53.012404 L19.2096861,53.012404 Z" id="Shape"></path>
                    </g>
                    <path d="M275.941542,88.2673704 C284.812809,90.7696395 291.607953,92.9487374 299.690663,95.3832945 C304.853248,81.6592868 309.199553,71.3116496 314.414503,57.4552955 C314.242006,55.0545945 313.820005,52.540014 312.23981,50.70871 C272.947489,45.3963894 275.048254,45.3840781 260.540036,85.3619065 C259.677552,87.7349072 257.992627,92.0592469 257.71232,92.9949048 C262.268085,87.9288099 270.052006,86.6053465 275.941542,88.2673704 L275.941542,88.2673704 Z" id="Shape" fill="#FFFFFF"></path>
                    <path d="M291.244478,331.178306 L353.019917,335.838129 C352.188236,312.400515 355.126843,278.365961 353.635977,256.184098 C353.602094,255.679336 353.651379,255.189962 353.756109,254.709822 C353.241699,248.723458 354.366008,242.595515 353.090764,236.673786 C352.222119,232.635683 349.933455,229.056176 347.500017,225.615172 C347.044133,225.125798 346.600569,224.639502 346.181648,224.150128 C341.08683,218.246866 336.48178,211.918864 331.716554,205.732442 C314.818022,183.793728 301.326303,157.675331 267.880394,154.575965 C267.871153,154.579043 267.864992,154.588276 267.858832,154.594432 C267.473794,154.862202 267.033311,154.289727 267.415268,154.021957 C267.5354,153.938856 267.646291,153.843443 267.760262,153.757264 C268.588863,152.935486 275.10986,143.32037 279.631742,140.21177 C288.40752,134.185395 299.105406,131.064484 309.362809,130.113437 C312.372263,129.833355 319.456956,130.381207 322.241548,128.97772 C323.535274,128.325222 327.083781,126.786311 327.801492,122.388104 C328.49764,118.109931 331.353079,110.381521 320.190067,107.648415 C301.061397,102.957814 282.745927,96.3497306 264.005375,90.2248651 C257.355005,88.048845 254.222338,89.5077326 251.092752,95.6879989 C240.718298,116.173981 230.035814,136.52454 218.783474,156.539615 C214.224628,164.655832 215.142558,170.235923 221.370927,177.056376 C243.358116,201.140332 264.901742,225.630561 286.214346,250.311614 C289.547232,254.171203 292.667577,259.822084 292.686059,264.657342 C292.766146,286.826893 291.866699,309.0026 291.244478,331.178306 L291.244478,331.178306 Z" id="Shape" fill="#FFFFFF"></path>
                </g>
                <g id="right-hand" transform="translate(500.269695, 216.671093)" fill="#FFFFFF" sketch:type="MSShapeGroup">
                    <path d="M85.3371823,126.105737 C85.0718872,125.729925 84.8099502,125.364179 84.5580877,124.998434 C81.5793943,120.562511 78.9700992,115.88164 76.2399101,111.284655 C66.5549587,94.9737483 59.5263169,76.1026227 37.0333197,71.2405564 C37.6512223,70.1835854 40.3276807,67.660277 46.1876807,63.9222909 C49.8279329,61.6003103 59.4591536,58.0737184 69.0601507,58.7548774 C74.2149358,59.1206229 79.2824086,58.6877682 80.279784,56.1980144 C82.1099846,51.6211624 84.2189129,46.0947144 76.8510963,43.3163908 C64.2277496,38.5549884 51.9368613,32.8540562 39.6997036,27.1531241 C35.3542366,25.1264242 33.1042652,25.8612707 30.4681048,29.8072955 C21.72344,42.8902469 12.7840016,55.8490462 3.48188118,68.5427639 C-0.289339461,73.6833336 -0.124789317,77.5588938 3.5490445,82.7128854 C16.5216405,100.899496 22.5831305,111.123593 35.0452853,129.662528 C36.9963798,132.561648 42.0739271,138.796099 41.9060188,140.420143 C39.4276922,165.019045 35.8284106,218.889949 33.4776943,234.751224 L78.1146196,221.926335 C79.3571411,205.927486 86.139784,163.428555 86.9994746,147.402862 C87.0196236,147.053894 87.0867869,146.728414 87.2043227,146.416356 C87.3453657,142.295847 88.6181107,138.218959 88.2319215,134.085029 C87.9699846,131.269795 86.7073141,128.649178 85.3371823,126.105737 Z" id="Shape"></path>
                    <path d="M83.6413084,147.399507 C83.9200361,144.748691 79.8700877,137.809593 87.8322998,126.142647 C77.9122768,109.576725 71.9011593,101.506835 59.5800475,80.9244234 C74.9873141,80.6492755 85.1390505,88.048072 95.0053428,96.1984924 C112.464449,110.613563 110.493205,107.690954 124.389297,95.5408216 C126.511658,93.6818949 128.936254,92.1920692 131.273538,90.6217124 C131.686592,90.3398535 132.448896,90.5747359 133.997011,90.5579586 C131.898157,110.086755 129.174684,128.991435 116.319624,145.010417 C113.666672,148.315548 111.883486,153.18097 111.678638,157.422276 C111.104392,169.652939 113.690007,201.074758 113.730305,213.32891 C104.260276,213.406086 85.9074052,221.859229 76.4407347,221.926338 C77.7369869,205.961044 81.9622253,163.331247 83.6413084,147.399507 Z" id="Shape"></path>
                    <path d="M106.863028,32.3272485 C108.176071,32.7164822 108.528678,32.7299041 108.76375,32.9043882 C129.315727,48.2556328 129.312369,48.2556328 112.457733,67.6200115 C110.395818,69.9856131 108.421217,72.4250349 106.332437,74.7705038 C92.9501451,89.8331785 92.9434287,89.829823 73.0429358,78.407826 C84.3129416,63.0532259 95.475486,47.8361998 106.863028,32.3272485 L106.863028,32.3272485 Z" id="Shape"></path>
                    <path d="M131.820919,54.9363602 C131.441446,54.5571928 130.706008,54.5269937 129.503784,54.131049 C124.23818,59.9997543 118.750936,66.0295219 113.354363,72.1364651 C108.021595,78.176299 102.786214,84.303375 97.5239674,90.3767636 C101.100414,94.2858783 104.183211,97.6614744 107.454065,101.238398 C108.478306,101.667898 109.536128,101.869225 110.647681,101.771917 C111.148048,101.735007 111.530879,101.550456 111.910351,101.352484 C118.59646,95.9300553 124.69489,91.0445008 130.669068,86.0549268 C148.440483,71.2103572 148.420334,71.1734471 131.820919,54.9363602 L131.820919,54.9363602 Z" id="Shape"></path>
                    <path d="M83.9334688,10.61069 C82.0394631,10.7180648 80.2159788,11.0770994 78.7081622,12.3857301 C78.664506,12.4226402 78.6208499,12.4293511 78.5738356,12.4327066 C73.7313599,20.7207009 69.5403685,27.8946815 64.741549,36.1055001 C68.5228441,37.6288805 72.2671994,39.0616633 76.1928957,41.0246093 C83.3491479,44.6015332 82.442443,50.6480781 80.7935834,55.731605 C79.7861336,58.8186312 77.2574344,60.7245344 76.3574459,61.0600807 C71.6828785,62.8049216 73.5869588,61.6841969 63.8348441,62.3049576 C59.2811707,62.590172 56.6517266,62.590172 52.9913255,63.6773421 C51.648059,64.0699313 49.7876349,64.6437155 48.3167581,65.0463711 C47.9977323,65.6335772 47.1145346,67.3213752 47.0238641,67.4723711 C66.9478642,81.833754 66.9512223,80.7868494 80.3100075,61.9257902 C82.3887124,58.9864044 84.3633141,55.9295773 86.4185118,52.9700587 C102.886959,29.2268004 103.219417,28.71677 83.9334688,10.61069 L83.9334688,10.61069 Z" id="Shape"></path>
                    <path d="M45.4421678,26.6800037 C51.7252968,29.8005846 55.2312223,31.2602111 61.1315203,33.7164103 C65.6784774,24.9821393 68.7344086,17.8282916 73.3250218,9.01348947 C73.4056178,7.36595699 73.3250218,5.62111607 72.4015261,4.24537612 C46.7350618,-2.43535131 46.8358068,-3.2775726 36.19042,21.6803634 C35.928483,22.2843468 36.4859386,22.9319512 37.6512223,23.4419817 C39.6426148,24.3177576 43.4507753,25.6934975 45.4421678,26.6800037 L45.4421678,26.6800037 Z" id="Shape"></path>
                </g>
            </g>
        </g>
    </g>
</svg>